<svg width="500" height="500" viewBox="0 0 500 500" fill="none" xmlns="http://www.w3.org/2000/svg">
<rect width="500" height="500" rx="250" fill="white"/>
<g clip-path="url(#clip0_531_9)">
<path d="M401 138.19L400.858 143.954C387.599 144.332 379.624 151.419 374.528 162.994C362.731 190.303 325.783 276.385 301.245 332.419H294.828L256.181 241.187C240.845 271.235 223.952 302.607 209.371 332.419C209.23 332.561 202.293 332.419 202.293 332.277C180.162 280.448 156.946 228.997 134.768 177.026C129.389 164.412 111.457 143.954 99.0942 144.096C99.0942 142.631 98.9526 139.371 98.9526 137.387H175.349V143.954C166.289 144.474 150.434 150.238 154.917 160.112C165.251 183.594 203.803 273.645 214.185 296.465C221.263 282.433 241.459 244.872 249.717 228.997C243.158 215.627 222.065 165.735 215.364 153.403C210.787 144.993 198.33 144.238 189.034 144.096V137.529L256.276 137.67V143.86C247.121 144.143 238.297 147.545 242.403 156.191C251.321 175.089 256.842 188.365 265.1 205.658C267.742 200.555 281.474 172.869 287.797 158.033C291.997 148.301 285.957 144.521 269.583 144.143C269.724 142.442 269.583 139.277 269.724 137.718C290.675 137.576 322.15 137.576 327.812 137.434V143.86C317.195 144.238 306.2 149.907 300.396 158.837L272.461 216.855C275.481 224.462 302.331 284.323 305.115 290.89L362.872 157.372C358.814 146.458 345.696 144.096 340.6 144.001V137.434L400.905 137.954L401 138.19Z" fill="#131313"/>
<circle cx="352" cy="283.935" r="46.5" fill="white" stroke="black" stroke-width="5"/>
<path d="M373 281.284H361.004V262.935H342.996V281.284H331L352 302.694L373 281.284ZM331 308.814V314.935H373V308.814H331Z" fill="#3366CC"/>
</g>
<path d="M158.813 396.333L153.629 378.861C153.469 378.381 153.389 377.965 153.389 377.613H153.005C153.005 377.965 152.909 378.381 152.717 378.861L146.909 396.333H143.501L133.469 366.621C133.245 365.949 132.957 365.517 132.605 365.325C132.253 365.101 131.469 364.845 130.253 364.557L130.589 362.637H141.293L141.485 364.605L138.797 365.517C138.573 365.549 138.461 365.645 138.461 365.805C138.461 365.933 138.525 366.189 138.653 366.573L145.325 388.125C145.613 389.149 145.757 389.693 145.757 389.757H146.237L151.757 372.285L150.077 366.621C149.981 366.237 149.869 365.949 149.741 365.757C149.645 365.565 149.453 365.389 149.165 365.229C148.781 365.037 148.125 364.813 147.197 364.557L147.533 362.637H157.661L157.853 364.605L154.445 365.517C154.221 365.549 154.109 365.645 154.109 365.805C154.109 365.933 154.173 366.189 154.301 366.573L160.637 388.125C160.925 389.117 161.069 389.661 161.069 389.757H161.549L168.269 368.589C168.621 367.405 168.797 366.621 168.797 366.237C168.797 365.533 167.565 364.973 165.101 364.557L165.389 362.637H175.229L175.421 364.653C174.109 364.941 173.261 365.245 172.877 365.565C172.493 365.885 172.157 366.477 171.869 367.341L162.269 396.333H158.813ZM177.326 395.901L177.038 394.029C178.606 393.709 179.55 393.389 179.87 393.069C180.222 392.717 180.398 392.125 180.398 391.293V377.517C180.398 376.845 180.142 376.365 179.63 376.077C179.118 375.757 178.158 375.453 176.75 375.165L177.038 373.629C180.462 373.181 182.846 372.957 184.19 372.957L184.718 373.437V392.445C184.718 392.829 184.798 393.085 184.958 393.213C185.15 393.309 185.39 393.389 185.678 393.453L188.03 394.029L187.838 395.901H177.326ZM184.766 364.413C184.766 365.213 184.51 365.885 183.998 366.429C183.518 366.973 182.862 367.245 182.03 367.245C181.23 367.245 180.558 367.005 180.014 366.525C179.502 366.045 179.246 365.389 179.246 364.557C179.246 363.693 179.486 363.005 179.966 362.493C180.478 361.981 181.166 361.725 182.03 361.725C183.854 361.725 184.766 362.621 184.766 364.413ZM191.85 395.901L191.562 394.029C193.13 393.709 194.074 393.389 194.394 393.069C194.746 392.717 194.922 392.125 194.922 391.293V363.405C194.922 362.733 194.666 362.253 194.154 361.965C193.642 361.645 192.682 361.341 191.274 361.053L191.562 359.517C194.986 359.069 197.37 358.845 198.714 358.845L199.242 359.325V384.813L207.498 377.085C207.754 376.797 207.882 376.525 207.882 376.269C207.882 375.789 206.778 375.389 204.57 375.069L204.858 373.197H214.41L214.602 375.069C213.13 375.293 212.25 375.549 211.962 375.837L205.386 382.125L212.346 392.061C212.858 392.701 213.418 393.165 214.026 393.453C214.666 393.741 215.578 393.933 216.762 394.029L216.474 395.901H209.802L202.362 385.053L199.242 388.029V392.445C199.242 392.829 199.322 393.085 199.482 393.213C199.674 393.309 199.914 393.389 200.202 393.453L202.314 394.029L202.122 395.901H191.85ZM219.514 395.901L219.226 394.029C220.794 393.709 221.738 393.389 222.058 393.069C222.41 392.717 222.586 392.125 222.586 391.293V377.517C222.586 376.845 222.33 376.365 221.818 376.077C221.306 375.757 220.346 375.453 218.938 375.165L219.226 373.629C222.65 373.181 225.034 372.957 226.378 372.957L226.906 373.437V392.445C226.906 392.829 226.986 393.085 227.146 393.213C227.338 393.309 227.578 393.389 227.866 393.453L230.218 394.029L230.026 395.901H219.514ZM226.954 364.413C226.954 365.213 226.698 365.885 226.186 366.429C225.706 366.973 225.05 367.245 224.218 367.245C223.418 367.245 222.746 367.005 222.202 366.525C221.69 366.045 221.434 365.389 221.434 364.557C221.434 363.693 221.674 363.005 222.154 362.493C222.666 361.981 223.354 361.725 224.218 361.725C226.042 361.725 226.954 362.621 226.954 364.413ZM234.325 382.605L244.789 381.933L244.021 384.909L233.749 386.157L234.325 382.605ZM248.673 395.901L248.385 394.029C250.081 393.741 251.105 393.421 251.457 393.069C251.841 392.717 252.033 392.045 252.033 391.053V367.485C252.033 366.493 251.841 365.821 251.457 365.469C251.105 365.117 250.081 364.797 248.385 364.509L248.673 362.637H261.345C264.833 362.637 267.505 363.341 269.361 364.749C271.217 366.125 272.145 368.061 272.145 370.557C272.145 372.541 271.601 374.221 270.513 375.597C269.457 376.941 268.321 377.805 267.105 378.189V378.525C269.153 378.909 270.865 379.869 272.241 381.405C273.617 382.941 274.305 384.813 274.305 387.021C274.305 389.197 273.345 391.229 271.425 393.117C269.537 394.973 266.625 395.901 262.689 395.901H248.673ZM256.689 377.517H259.377C262.001 377.517 263.921 376.957 265.137 375.837C266.385 374.685 267.009 373.117 267.009 371.133C267.009 367.165 264.641 365.181 259.905 365.181H256.689V377.517ZM256.689 391.245C256.689 392.173 256.929 392.733 257.409 392.925C257.889 393.245 258.865 393.405 260.337 393.405C263.409 393.405 265.617 392.861 266.961 391.773C268.305 390.685 268.977 389.117 268.977 387.069C268.977 384.093 267.777 382.045 265.377 380.925C264.193 380.349 262.849 380.061 261.345 380.061H256.689V391.245ZM280.408 389.949V377.277C280.408 376.605 280.152 376.125 279.64 375.837C279.128 375.517 278.168 375.213 276.76 374.925L277.048 373.389C280.472 372.941 282.856 372.717 284.2 372.717L284.728 373.197V387.885C284.728 391.213 285.992 392.877 288.52 392.877C290.152 392.877 291.848 392.253 293.608 391.005C294.024 390.717 294.296 390.445 294.424 390.189C294.552 389.901 294.616 389.437 294.616 388.797V377.277C294.616 376.605 294.36 376.125 293.848 375.837C293.336 375.517 292.376 375.213 290.968 374.925L291.256 373.389C294.68 372.941 297.064 372.717 298.408 372.717L298.936 373.197V391.149C298.936 391.981 299.128 392.573 299.512 392.925C299.928 393.245 300.952 393.565 302.584 393.885L302.296 395.421L296.104 396.093C295.88 396.125 295.64 395.709 295.384 394.845C295.16 393.949 295.048 393.181 295.048 392.541V392.253L294.664 392.109L294.088 392.781C292.072 395.149 289.608 396.333 286.696 396.333C284.744 396.333 283.208 395.821 282.088 394.797C280.968 393.741 280.408 392.125 280.408 389.949ZM305.615 395.901L305.327 394.029C306.895 393.709 307.839 393.389 308.159 393.069C308.511 392.717 308.687 392.125 308.687 391.293V363.405C308.687 362.733 308.431 362.253 307.919 361.965C307.407 361.645 306.447 361.341 305.039 361.053L305.327 359.517C308.751 359.069 311.135 358.845 312.479 358.845L313.007 359.325V392.445C313.007 392.829 313.087 393.085 313.247 393.213C313.439 393.309 313.679 393.389 313.967 393.453L316.319 394.029L316.127 395.901H305.615ZM320.147 395.901L319.859 394.029C321.427 393.709 322.371 393.389 322.691 393.069C323.043 392.717 323.219 392.125 323.219 391.293V363.405C323.219 362.733 322.963 362.253 322.451 361.965C321.939 361.645 320.979 361.341 319.571 361.053L319.859 359.517C323.283 359.069 325.667 358.845 327.011 358.845L327.539 359.325V384.813L335.795 377.085C336.051 376.797 336.179 376.525 336.179 376.269C336.179 375.789 335.075 375.389 332.867 375.069L333.155 373.197H342.707L342.899 375.069C341.427 375.293 340.547 375.549 340.259 375.837L333.683 382.125L340.643 392.061C341.155 392.701 341.715 393.165 342.323 393.453C342.963 393.741 343.875 393.933 345.059 394.029L344.771 395.901H338.099L330.659 385.053L327.539 388.029V392.445C327.539 392.829 327.619 393.085 327.779 393.213C327.971 393.309 328.211 393.389 328.499 393.453L330.611 394.029L330.419 395.901H320.147ZM346.947 401.517C347.715 401.613 348.771 401.661 350.115 401.661C351.491 401.661 352.579 401.485 353.379 401.133C354.179 400.813 355.139 399.069 356.259 395.901L348.291 376.797C348.035 376.189 347.795 375.805 347.571 375.645C347.379 375.485 346.771 375.293 345.747 375.069L346.035 373.197H355.923L356.115 375.069L353.187 375.789C352.963 375.821 352.851 375.949 352.851 376.173C352.851 376.205 352.915 376.413 353.043 376.797L357.939 389.613C358.099 390.061 358.179 390.557 358.179 391.101H358.563L363.651 377.901C363.843 377.389 363.939 376.973 363.939 376.653C363.939 376.301 363.699 376.013 363.219 375.789C362.771 375.565 361.955 375.325 360.771 375.069L361.059 373.197H369.603L369.795 375.069C368.387 375.389 367.635 375.661 367.539 375.885L359.955 394.701C359.315 396.301 358.803 397.517 358.419 398.349C358.035 399.213 357.507 400.173 356.835 401.229C356.163 402.285 355.459 403.101 354.723 403.677C352.899 405.053 350.691 405.965 348.099 406.413C347.267 405.581 346.851 404.269 346.851 402.477C346.851 402.285 346.883 401.965 346.947 401.517Z" fill="#131313"/>
<defs>
<clipPath id="clip0_531_9">
<rect width="302" height="241.9" fill="white" transform="translate(99 114)"/>
</clipPath>
</defs>
</svg>
