<svg width="500" height="500" viewBox="0 0 500 500" fill="none" xmlns="http://www.w3.org/2000/svg">
<rect width="500" height="500" fill="white"/>
<circle opacity="0.2" cx="249.502" cy="208.498" r="146.498" stroke="#222233" stroke-width="6"/>
<g clip-path="url(#clip0_531_9)">
<path d="M399 122.255L398.858 128.019C385.599 128.397 377.624 135.484 372.528 147.059C360.731 174.367 323.783 260.45 299.245 316.484H292.828L254.181 225.251C238.845 255.3 221.952 286.671 207.371 316.484C207.23 316.626 200.293 316.484 200.293 316.342C178.162 264.513 154.946 213.062 132.768 161.091C127.389 148.476 109.457 128.019 97.0942 128.16C97.0942 126.696 96.9526 123.436 96.9526 121.452H173.349V128.019C164.289 128.538 148.434 134.303 152.917 144.177C163.251 167.658 201.803 257.71 212.185 280.529C219.263 266.497 239.459 228.937 247.717 213.062C241.158 199.691 220.065 149.799 213.364 137.468C208.787 129.058 196.33 128.302 187.034 128.16V121.593L254.276 121.735V127.924C245.121 128.208 236.297 131.609 240.403 140.256C249.321 159.154 254.842 172.43 263.1 189.722C265.742 184.62 279.474 156.933 285.797 142.098C289.997 132.365 283.957 128.586 267.583 128.208C267.724 126.507 267.583 123.341 267.724 121.782C288.675 121.641 320.15 121.641 325.812 121.499V127.924C315.195 128.302 304.2 133.972 298.396 142.901L270.461 200.92C273.481 208.526 300.331 268.387 303.115 274.954L360.872 141.437C356.814 130.523 343.696 128.16 338.6 128.066V121.499L398.905 122.018L399 122.255Z" fill="#0055D4"/>
<path d="M392.603 287.053H375.522V261.762H349.882V287.053H332.801L362.702 316.563L392.603 287.053ZM332.801 324.999V333.436H392.603V324.999H332.801Z" fill="black"/>
</g>
<path d="M79.1758 436L78.9358 434.44C80.3491 434.2 81.2024 433.933 81.4958 433.64C81.8158 433.347 81.9758 432.787 81.9758 431.96V412.32C81.9758 411.493 81.8158 410.933 81.4958 410.64C81.2024 410.347 80.3491 410.08 78.9358 409.84L79.1758 408.28H89.7358C92.6424 408.28 94.8691 408.867 96.4158 410.04C97.9624 411.187 98.7358 412.8 98.7358 414.88C98.7358 416.533 98.2824 417.933 97.3758 419.08C96.4958 420.2 95.5491 420.92 94.5358 421.24V421.52C96.2424 421.84 97.6691 422.64 98.8158 423.92C99.9624 425.2 100.536 426.76 100.536 428.6C100.536 430.413 99.7358 432.107 98.1358 433.68C96.5624 435.227 94.1358 436 90.8558 436H79.1758ZM85.8558 420.68H88.0958C90.2824 420.68 91.8824 420.213 92.8958 419.28C93.9358 418.32 94.4558 417.013 94.4558 415.36C94.4558 412.053 92.4824 410.4 88.5358 410.4H85.8558V420.68ZM85.8558 432.12C85.8558 432.893 86.0558 433.36 86.4558 433.52C86.8558 433.787 87.6691 433.92 88.8958 433.92C91.4558 433.92 93.2958 433.467 94.4158 432.56C95.5358 431.653 96.0958 430.347 96.0958 428.64C96.0958 426.16 95.0958 424.453 93.0958 423.52C92.1091 423.04 90.9891 422.8 89.7358 422.8H85.8558V432.12ZM105.621 431.04V420.48C105.621 419.92 105.408 419.52 104.981 419.28C104.555 419.013 103.755 418.76 102.581 418.52L102.821 417.24C105.675 416.867 107.661 416.68 108.781 416.68L109.221 417.08V429.32C109.221 432.093 110.275 433.48 112.381 433.48C113.741 433.48 115.155 432.96 116.621 431.92C116.968 431.68 117.195 431.453 117.301 431.24C117.408 431 117.461 430.613 117.461 430.08V420.48C117.461 419.92 117.248 419.52 116.821 419.28C116.395 419.013 115.595 418.76 114.421 418.52L114.661 417.24C117.515 416.867 119.501 416.68 120.621 416.68L121.061 417.08V432.04C121.061 432.733 121.221 433.227 121.541 433.52C121.888 433.787 122.741 434.053 124.101 434.32L123.861 435.6L118.701 436.16C118.515 436.187 118.315 435.84 118.101 435.12C117.915 434.373 117.821 433.733 117.821 433.2V432.96L117.501 432.84L117.021 433.4C115.341 435.373 113.288 436.36 110.861 436.36C109.235 436.36 107.955 435.933 107.021 435.08C106.088 434.2 105.621 432.853 105.621 431.04ZM126.627 436L126.387 434.44C127.694 434.173 128.481 433.907 128.747 433.64C129.041 433.347 129.187 432.853 129.187 432.16V408.92C129.187 408.36 128.974 407.96 128.547 407.72C128.121 407.453 127.321 407.2 126.147 406.96L126.387 405.68C129.241 405.307 131.227 405.12 132.347 405.12L132.787 405.52V433.12C132.787 433.44 132.854 433.653 132.987 433.76C133.147 433.84 133.347 433.907 133.587 433.96L135.547 434.44L135.387 436H126.627ZM138.737 436L138.497 434.44C139.803 434.173 140.59 433.907 140.857 433.64C141.15 433.347 141.297 432.853 141.297 432.16V408.92C141.297 408.36 141.083 407.96 140.657 407.72C140.23 407.453 139.43 407.2 138.257 406.96L138.497 405.68C141.35 405.307 143.337 405.12 144.457 405.12L144.897 405.52V426.76L151.777 420.32C151.99 420.08 152.097 419.853 152.097 419.64C152.097 419.24 151.177 418.907 149.337 418.64L149.577 417.08H157.537L157.697 418.64C156.47 418.827 155.737 419.04 155.497 419.28L150.017 424.52L155.817 432.8C156.243 433.333 156.71 433.72 157.217 433.96C157.75 434.2 158.51 434.36 159.497 434.44L159.257 436H153.697L147.497 426.96L144.897 429.44V433.12C144.897 433.44 144.963 433.653 145.097 433.76C145.257 433.84 145.457 433.907 145.697 433.96L147.457 434.44L147.297 436H138.737ZM193.355 436.36L189.035 421.8C188.902 421.4 188.835 421.053 188.835 420.76H188.515C188.515 421.053 188.435 421.4 188.275 421.8L183.435 436.36H180.595L172.235 411.6C172.048 411.04 171.808 410.68 171.515 410.52C171.222 410.333 170.568 410.12 169.555 409.88L169.835 408.28H178.755L178.915 409.92L176.675 410.68C176.488 410.707 176.395 410.787 176.395 410.92C176.395 411.027 176.448 411.24 176.555 411.56L182.115 429.52C182.355 430.373 182.475 430.827 182.475 430.88H182.875L187.475 416.32L186.075 411.6C185.995 411.28 185.902 411.04 185.795 410.88C185.715 410.72 185.555 410.573 185.315 410.44C184.995 410.28 184.448 410.093 183.675 409.88L183.955 408.28H192.395L192.555 409.92L189.715 410.68C189.528 410.707 189.435 410.787 189.435 410.92C189.435 411.027 189.488 411.24 189.595 411.56L194.875 429.52C195.115 430.347 195.235 430.8 195.235 430.88H195.635L201.235 413.24C201.528 412.253 201.675 411.6 201.675 411.28C201.675 410.693 200.648 410.227 198.595 409.88L198.835 408.28H207.035L207.195 409.96C206.102 410.2 205.395 410.453 205.075 410.72C204.755 410.987 204.475 411.48 204.235 412.2L196.235 436.36H193.355ZM208.782 436L208.542 434.44C209.849 434.173 210.636 433.907 210.902 433.64C211.196 433.347 211.342 432.853 211.342 432.16V420.68C211.342 420.12 211.129 419.72 210.702 419.48C210.276 419.213 209.476 418.96 208.302 418.72L208.542 417.44C211.396 417.067 213.382 416.88 214.502 416.88L214.942 417.28V433.12C214.942 433.44 215.009 433.653 215.142 433.76C215.302 433.84 215.502 433.907 215.742 433.96L217.702 434.44L217.542 436H208.782ZM214.982 409.76C214.982 410.427 214.769 410.987 214.342 411.44C213.942 411.893 213.396 412.12 212.702 412.12C212.036 412.12 211.476 411.92 211.022 411.52C210.596 411.12 210.382 410.573 210.382 409.88C210.382 409.16 210.582 408.587 210.982 408.16C211.409 407.733 211.982 407.52 212.702 407.52C214.222 407.52 214.982 408.267 214.982 409.76ZM220.885 436L220.645 434.44C221.952 434.173 222.738 433.907 223.005 433.64C223.298 433.347 223.445 432.853 223.445 432.16V408.92C223.445 408.36 223.232 407.96 222.805 407.72C222.378 407.453 221.578 407.2 220.405 406.96L220.645 405.68C223.498 405.307 225.485 405.12 226.605 405.12L227.045 405.52V426.76L233.925 420.32C234.138 420.08 234.245 419.853 234.245 419.64C234.245 419.24 233.325 418.907 231.485 418.64L231.725 417.08H239.685L239.845 418.64C238.618 418.827 237.885 419.04 237.645 419.28L232.165 424.52L237.965 432.8C238.392 433.333 238.858 433.72 239.365 433.96C239.898 434.2 240.658 434.36 241.645 434.44L241.405 436H235.845L229.645 426.96L227.045 429.44V433.12C227.045 433.44 227.112 433.653 227.245 433.76C227.405 433.84 227.605 433.907 227.845 433.96L229.605 434.44L229.445 436H220.885ZM243.939 436L243.699 434.44C245.005 434.173 245.792 433.907 246.059 433.64C246.352 433.347 246.499 432.853 246.499 432.16V420.68C246.499 420.12 246.285 419.72 245.859 419.48C245.432 419.213 244.632 418.96 243.459 418.72L243.699 417.44C246.552 417.067 248.539 416.88 249.659 416.88L250.099 417.28V433.12C250.099 433.44 250.165 433.653 250.299 433.76C250.459 433.84 250.659 433.907 250.899 433.96L252.859 434.44L252.699 436H243.939ZM250.139 409.76C250.139 410.427 249.925 410.987 249.499 411.44C249.099 411.893 248.552 412.12 247.859 412.12C247.192 412.12 246.632 411.92 246.179 411.52C245.752 411.12 245.539 410.573 245.539 409.88C245.539 409.16 245.739 408.587 246.139 408.16C246.565 407.733 247.139 407.52 247.859 407.52C249.379 407.52 250.139 408.267 250.139 409.76ZM256.281 424.92L265.001 424.36L264.361 426.84L255.801 427.88L256.281 424.92ZM268.238 436L267.998 434.44C269.412 434.2 270.265 433.933 270.558 433.64C270.878 433.347 271.038 432.787 271.038 431.96V412.32C271.038 411.493 270.878 410.933 270.558 410.64C270.265 410.347 269.412 410.08 267.998 409.84L268.238 408.28H280.758C283.052 408.28 285.038 408.653 286.718 409.4C288.398 410.12 289.705 411.12 290.638 412.4C292.452 414.853 293.358 417.813 293.358 421.28C293.358 425.093 292.345 428.413 290.318 431.24C289.305 432.68 287.892 433.84 286.078 434.72C284.292 435.573 282.225 436 279.878 436H268.238ZM274.918 432.28C274.918 432.867 275.198 433.213 275.758 433.32C277.625 433.693 279.038 433.88 279.998 433.88C282.958 433.88 285.185 432.827 286.678 430.72C288.172 428.613 288.918 425.8 288.918 422.28C288.918 420.067 288.625 418.147 288.038 416.52C287.478 414.893 286.718 413.653 285.758 412.8C283.945 411.2 281.972 410.4 279.838 410.4H274.918V432.28ZM304.994 436.36C302.114 436.36 299.901 435.507 298.354 433.8C296.807 432.093 296.034 429.707 296.034 426.64C296.034 423.573 296.847 421.12 298.474 419.28C300.127 417.413 302.394 416.48 305.274 416.48C308.181 416.48 310.407 417.347 311.954 419.08C313.501 420.787 314.274 423.173 314.274 426.24C314.274 429.307 313.447 431.76 311.794 433.6C310.167 435.44 307.901 436.36 304.994 436.36ZM299.914 426.12C299.914 428.493 300.394 430.44 301.354 431.96C302.314 433.48 303.621 434.24 305.274 434.24C306.927 434.24 308.101 433.84 308.794 433.04C309.274 432.507 309.661 431.667 309.954 430.52C310.247 429.347 310.394 428.08 310.394 426.72C310.394 424.347 309.914 422.4 308.954 420.88C307.994 419.36 306.687 418.6 305.034 418.6C303.381 418.6 302.207 419 301.514 419.8C301.034 420.333 300.647 421.187 300.354 422.36C300.061 423.507 299.914 424.76 299.914 426.12ZM323.815 436.36L318.015 420.08C317.828 419.573 317.642 419.253 317.455 419.12C317.268 418.987 316.735 418.827 315.855 418.64L316.095 417.08H323.495L323.655 418.64L321.895 419.2C321.708 419.227 321.615 419.32 321.615 419.48C321.615 419.507 321.668 419.68 321.775 420L325.455 431.52C325.562 431.787 325.615 432.107 325.615 432.48V432.64H325.935C325.935 432.347 326.042 431.947 326.255 431.44L329.895 422.36L329.135 420.08C328.975 419.6 328.802 419.293 328.615 419.16C328.455 419 328.042 418.827 327.375 418.64L327.615 417.08H334.175L334.335 418.64L332.575 419.2C332.388 419.227 332.295 419.32 332.295 419.48C332.295 419.507 332.348 419.68 332.455 420L336.095 431.52C336.202 431.84 336.255 432.16 336.255 432.48V432.64H336.575C336.575 432.48 336.682 432.08 336.895 431.44L340.535 421C340.695 420.573 340.775 420.293 340.775 420.16C340.775 420 340.762 419.893 340.735 419.84C340.735 419.76 340.708 419.693 340.655 419.64C340.602 419.56 340.548 419.507 340.495 419.48C340.468 419.427 340.402 419.373 340.295 419.32C340.215 419.267 340.135 419.227 340.055 419.2C340.002 419.147 339.908 419.093 339.775 419.04C339.642 418.987 339.522 418.947 339.415 418.92C339.335 418.893 339.215 418.853 339.055 418.8C338.895 418.72 338.762 418.667 338.655 418.64L338.895 417.08H345.455L345.615 418.64C344.762 418.853 344.242 419 344.055 419.08C343.868 419.133 343.762 419.213 343.735 419.32L337.095 436.36H334.495L331.215 426.28C331.082 425.88 331.015 425.52 331.015 425.2H330.695C330.695 425.493 330.615 425.84 330.455 426.24L326.415 436.36H323.815ZM347.291 436L347.051 434.44C348.358 434.173 349.145 433.907 349.411 433.64C349.705 433.347 349.851 432.853 349.851 432.16V408.92C349.851 408.36 349.638 407.96 349.211 407.72C348.785 407.453 347.985 407.2 346.811 406.96L347.051 405.68C349.905 405.307 351.891 405.12 353.011 405.12L353.451 405.52V433.12C353.451 433.44 353.518 433.653 353.651 433.76C353.811 433.84 354.011 433.907 354.251 433.96L356.211 434.44L356.051 436H347.291ZM368.041 436.36C365.161 436.36 362.947 435.507 361.401 433.8C359.854 432.093 359.081 429.707 359.081 426.64C359.081 423.573 359.894 421.12 361.521 419.28C363.174 417.413 365.441 416.48 368.321 416.48C371.227 416.48 373.454 417.347 375.001 419.08C376.547 420.787 377.321 423.173 377.321 426.24C377.321 429.307 376.494 431.76 374.841 433.6C373.214 435.44 370.947 436.36 368.041 436.36ZM362.961 426.12C362.961 428.493 363.441 430.44 364.401 431.96C365.361 433.48 366.667 434.24 368.321 434.24C369.974 434.24 371.147 433.84 371.841 433.04C372.321 432.507 372.707 431.667 373.001 430.52C373.294 429.347 373.441 428.08 373.441 426.72C373.441 424.347 372.961 422.4 372.001 420.88C371.041 419.36 369.734 418.6 368.081 418.6C366.427 418.6 365.254 419 364.561 419.8C364.081 420.333 363.694 421.187 363.401 422.36C363.107 423.507 362.961 424.76 362.961 426.12ZM380.262 431.08C380.262 429.08 381.115 427.587 382.822 426.6C384.529 425.613 387.302 425.107 391.142 425.08V423.8C391.142 420.333 389.889 418.6 387.382 418.6C386.182 418.6 385.422 418.773 385.102 419.12C384.809 419.467 384.489 420.6 384.142 422.52L381.982 422.28C381.769 421.453 381.662 420.6 381.662 419.72C381.662 418.813 381.675 418.227 381.702 417.96C383.275 416.973 385.342 416.48 387.902 416.48C390.462 416.48 392.235 416.973 393.222 417.96C394.235 418.947 394.742 420.573 394.742 422.84V432.04C394.742 432.733 394.902 433.227 395.222 433.52C395.569 433.787 396.422 434.053 397.782 434.32L397.542 435.6L392.742 436.12C392.475 436.12 392.195 435.867 391.902 435.36C391.609 434.853 391.462 434.387 391.462 433.96C391.462 433.507 391.475 433.173 391.502 432.96L391.182 432.84L390.702 433.56C389.449 435.427 387.729 436.36 385.542 436.36C384.049 436.36 382.795 435.893 381.782 434.96C380.769 434.027 380.262 432.733 380.262 431.08ZM384.142 430.72C384.142 431.68 384.395 432.413 384.902 432.92C385.409 433.4 386.129 433.64 387.062 433.64C387.995 433.64 389.049 433.187 390.222 432.28C390.835 431.8 391.142 431.293 391.142 430.76V426.84C388.742 426.893 386.969 427.213 385.822 427.8C384.702 428.387 384.142 429.36 384.142 430.72ZM413.451 433.36C411.904 435.36 410.051 436.36 407.891 436.36C405.731 436.36 403.957 435.507 402.571 433.8C401.184 432.067 400.491 429.707 400.491 426.72C400.491 423.733 401.277 421.28 402.851 419.36C404.424 417.44 406.624 416.48 409.451 416.48C411.397 416.48 412.837 416.827 413.771 417.52L414.051 417.4C413.944 416.973 413.891 416.387 413.891 415.64V408.92C413.891 408.36 413.611 407.947 413.051 407.68C412.517 407.387 411.544 407.147 410.131 406.96L410.371 405.68C413.224 405.307 415.451 405.12 417.051 405.12L417.491 405.52V432.08C417.491 432.773 417.651 433.267 417.971 433.56C418.317 433.827 419.171 434.093 420.531 434.36L420.291 435.64L415.491 436.16C415.224 436.16 414.931 435.893 414.611 435.36C414.291 434.827 414.131 434.347 414.131 433.92C414.131 433.493 414.144 433.173 414.171 432.96L413.851 432.84L413.451 433.36ZM404.371 425.76C404.371 428.4 404.784 430.347 405.611 431.6C406.464 432.853 407.531 433.48 408.811 433.48C410.091 433.48 411.424 433.027 412.811 432.12C413.531 431.64 413.891 431.027 413.891 430.28V420.72C412.797 419.413 411.091 418.76 408.771 418.76C407.624 418.76 406.717 419.133 406.051 419.88C404.931 421.133 404.371 423.093 404.371 425.76Z" fill="#131313"/>
<defs>
<clipPath id="clip0_531_9">
<rect width="302" height="241.9" fill="white" transform="translate(97 98.0647)"/>
</clipPath>
</defs>
</svg>
